# AST/ASF file generated using VICON BodyLanguage
# -----------------------------------------------
:version 1.10
:name VICON
:units
  mass 1.0
  length 0.45
  angle deg
:documentation
   .ast/.asf automatically generated from VICON data using
   VICON BodyBuilder and BodyLanguage model FoxedUp or BRILLIANT.MOD
:root
   order TX TY TZ RX RY RZ
   axis XYZ
   position 0 0 0  
   orientation 0 0 0 
:bonedata
  begin
     id 1 
     name lhipjoint
     direction 0.714689 -0.624256 0.315473 
     length 2.45343 
     axis 0 0 0  XYZ
  end
  begin
     id 2 
     name lfemur
     direction 0.34202 -0.939693 0  
     length 6.59069  
     axis 0 0 20  XYZ
    dof rx ry rz
    limits (-160.0 20.0)
           (-70.0 70.0)
           (-60.0 70.0)
  end
  begin
     id 3 
     name ltibia
     direction 0.34202 -0.939693 0   
     length 6.73476   
     axis 0 0 20   XYZ
    dof rx
    limits (-10.0 170.0)
  end
  begin
     id 4 
     name lfoot
     direction 0.0718085 -0.197292 0.977711   
     length 1.52607   
     axis -90 7.62852e-016 20   XYZ
    dof rx rz
    limits (-45.0 90.0)
           (-70.0 20.0)
  end
  begin
     id 5 
     name ltoes
     direction 1.53553e-011 -4.22024e-011 1   
     length 0.777832   
     axis -90 7.62852e-016 20   XYZ
    dof rx
    limits (-90.0 20.0)
  end
  begin
     id 6 
     name rhipjoint
     direction -0.727419 -0.612432 0.309497   
     length 2.50079  
     axis 0 0 0  XYZ 
  end
  begin
     id 7 
     name rfemur
     direction -0.34202 -0.939693 0   
     length 6.51665   
     axis 0 0 -20   XYZ
    dof rx ry rz
    limits (-160.0 20.0)
           (-70.0 70.0)
           (-70.0 60.0)
  end
  begin
     id 8 
     name rtibia
     direction -0.34202 -0.939693 0   
     length 6.48919   
     axis 0 0 -20   XYZ
    dof rx
    limits (-10.0 170.0)
 end
 begin
     id 9 
     name rfoot
     direction -0.112205 -0.308282 0.944655   
     length 1.68717  
     axis -90 -7.62852e-016 -20   XYZ
    dof rx rz
    limits (-45.0 90.0)
           (-20.0 70.0)
  end
  begin
     id 10 
     name rtoes
     direction -1.53583e-011 -4.21993e-011 1   
     length 0.846859   
     axis -90 -7.62852e-016 -20   XYZ
    dof rx
    limits (-90.0 20.0)
  end
  begin
     id 11 
     name lowerback
     direction -0.00119603 0.996364 -0.0851956   
     length 1.67242   
     axis 0 0 0   XYZ
    dof rx ry rz
    limits (-20.0 45.0)
           (-30.0 30.0)
           (-30.0 30.0)
  end
  begin
     id 12 
     name upperback
     direction -0.00531001 0.998318 0.0577248   
     length 1.64819   
     axis 0 0 0   XYZ
    dof rx ry rz
    limits (-20.0 45.0)
           (-30.0 30.0)
           (-30.0 30.0)
  end
  begin
     id 13 
     name thorax
     direction -0.00653676 0.995132 0.0983291   
     length 1.67429   
     axis 0 0 0   XYZ
    dof rx ry rz
    limits (-20.0 45.0)
           (-30.0 30.0)
           (-30.0 30.0)
  end
  begin
     id 14 
     name lowerneck
     direction 0.0141424 0.999886 0.00525412   
     length 1.59623   
     axis 0 0 0   XYZ
    dof rx ry rz
    limits (-20.0 45.0)
           (-30.0 30.0)
           (-30.0 30.0)
  end
  begin
     id 15 
     name upperneck
     direction -0.0640064 0.987178 -0.146232   
     length 1.59576   
     axis 0 0 0   XYZ
    dof rx ry rz
    limits (-20.0 45.0)
           (-30.0 30.0)
           (-30.0 30.0)
  end
  begin
     id 16
     name head
     direction -0.0222942 0.998496 -0.0500859  
     length 1.60959  
     axis 0 0 0   XYZ
    dof rx ry rz
    limits (-20.0 45.0)
           (-30.0 30.0)
           (-30.0 30.0)
  end
  begin
     id 17 
     name lclavicle
     direction 0.908549 0.392612 0.142806  
     length 2.80649  
     axis 0 0 0   XYZ
    dof ry rz
    limits (-20.0 10.0)
           (0.0 20.0)
  end
  begin
     id 18 
     name lhumerus
     direction 1 -4.48968e-011 1.08832e-028   
     length 4.2884   
     axis -180 -30 -90   XYZ
    dof rx ry rz
    limits (-60.0 90.0)
           (-90.0 90.0)
           (-90.0 90.0)
  end
  begin
     id 19
     name lradius
     direction 1 -4.48952e-011 -3.02642e-028   
     length 3.06552   
     axis -180 -30 -90   XYZ
    dof rx
    limits (-10.0 170.0)
  end
  begin
     id 20
     name lwrist
     direction 1 -4.49014e-011 1.58672e-027   
     length 1.53276   
     axis -1.65735e-015 90 90   XYZ
    dof ry
    limits (-180.0 0.0)
 end
  begin
     id 21 
     name lhand
     direction 1 -4.48928e-011 3.17344e-027   
     length 0.753045   
     axis -2.02492e-015 90 90   XYZ
    dof rx rz
    limits (-90.0 90.0)
           (-45.0 45.0)
  end
  begin
     id 22 
     name lfingers
     direction 1 -4.48958e-011 6.34687e-027   
     length 0.607124   
     axis -4.04985e-015 90 90   XYZ
    dof rx
    limits (0.0 90.0)
  end
  begin
     id 23
     name lthumb
     direction 0.707107 -6.34905e-011 0.707107   
     length 0.871712   
     axis -90 45 2.85299e-015   XYZ
    dof rx rz
    limits (-45.0 45.0)
           (-45.0 45.0)
  end
  begin
     id 24 
     name rclavicle
     direction -0.885098 0.45949 0.0739604   
     length 2.9478  
     axis 0 0 0   XYZ 
    dof ry rz
    limits (-10.0 20.0)
           (-20.0 0.0)
  end
  begin
     id 25 
     name rhumerus
     direction -1 -4.4898e-011 -2.61739e-027  
     length 4.52172   
     axis -180 30 90   XYZ
    dof rx ry rz
    limits (-90.0 60.0)
           (-90.0 90.0)
           (-90.0 90.0)
  end
  begin
     id 26 
     name rradius
     direction -1 -4.48945e-011 9.02552e-028   
     length 2.8914   
     axis -180 30 90   XYZ
    dof rx
    limits (-10.0 170.0)
  end
  begin
     id 27 
     name rwrist
     direction -1 -4.49018e-011 1.58672e-027   
     length 1.4457   
     axis -1.65735e-015 -90 -90   XYZ
    dof ry
    limits (-180.0 0.0)
  end
  begin
     id 28
     name rhand
     direction -1 -4.48825e-011 3.17344e-027   
     length 0.680541   
     axis -2.02492e-015 -90 -90   XYZ
    dof rx rz
    limits (-90.0 90.0)
           (-45.0 45.0)
  end
  begin
     id 29
     name rfingers
     direction -1 -4.49067e-011 6.34687e-027   
     length 0.54867   
     axis -4.04985e-015 -90 -90   XYZ
    dof rx
    limits (0.0 90.0)
  end
  begin
     id 30
     name rthumb
     direction -0.707107 -6.34833e-011 0.707107   
     length 0.787783   
     axis -90 -45 -2.85299e-015   XYZ
    dof rx rz
    limits (-45.0 45.0)
           (-45.0 45.0)
  end
:hierarchy
  begin
    root lhipjoint rhipjoint lowerback
    lhipjoint lfemur
    lfemur ltibia
    ltibia lfoot
    lfoot ltoes
    rhipjoint rfemur
    rfemur rtibia
    rtibia rfoot
    rfoot rtoes
    lowerback upperback
    upperback thorax
    thorax lowerneck lclavicle rclavicle
    lowerneck upperneck
    upperneck head
    lclavicle lhumerus
    lhumerus lradius
    lradius lwrist
    lwrist lhand lthumb
    lhand lfingers
    rclavicle rhumerus
    rhumerus rradius
    rradius rwrist
    rwrist rhand rthumb
    rhand rfingers
  end

#!OML:ASF E:\emotionWalksFemale\Project 1\Capture day 1\Session 1\Female1.ASF
:FULLY-SPECIFIED
:DEGREES
49
root 9.43206 14.6107 -10.0737 18.9667 1.24264 -1.69832
lowerback 16.345 1.34189 1.41902
upperback -1.64653 2.11458 0.40559
thorax -10.9799 0.927199 -0.900077
lowerneck -8.88068 -3.59318 -5.8961
upperneck -11.3862 -3.94444 6.67652
head -1.86322 -1.84365 3.15575
rclavicle 1.55052e-014 0
rhumerus -50.5514 11.7587 -90.3421
rradius 30.8516
rwrist 27.0588
rhand -10.024 -49.7153
rfingers 7.12502
rthumb 15.9605 -79.0777
lclavicle 1.55052e-014 0
lhumerus -54.0371 2.6523 80.2636
lradius 30.8627
lwrist -11.3132
lhand -6.9793 -40.9745
lfingers 7.12502
lthumb 18.8907 -11.8718
rfemur -38.5747 7.01546 27.5894
rtibia 51.9068
rfoot -28.9326 -23.9178
rtoes -6.69078
lfemur -43.4503 -4.15666 -20.2846
ltibia 57.7439
lfoot -33.387 10.0143
ltoes -36.255
50
root 9.43001 14.5581 -10.0571 19.0957 1.33414 -1.69258
lowerback 16.6626 1.32841 1.44525
upperback -1.55651 2.10886 0.432799
thorax -11.0633 0.922449 -0.891453
lowerneck -9.4962 -3.61896 -5.98414
upperneck -11.4189 -3.93368 6.73955
head -1.76769 -1.8259 3.18148
rclavicle 3.20043e-014 2.5842e-015
rhumerus -49.6839 11.2246 -89.8167
rradius 30.7137
rwrist 27.1612
rhand -9.60027 -49.5691
rfingers 7.12502
rthumb 16.3685 -78.8984
lclavicle 3.20043e-014 2.5842e-015
lhumerus -53.2598 2.64002 80.7447
lradius 30.4782
lwrist -11.3337
lhand -7.14336 -42.379
lfingers 7.12502
lthumb 18.7329 -13.261
rfemur -39.1654 6.79909 27.6985
rtibia 52.9636
rfoot -29.5112 -23.8293
rtoes -5.98152
lfemur -44.0596 -4.05798 -20.3111
ltibia 58.7835
lfoot -33.7333 9.72559
ltoes -35.7985
51
root 9.42875 14.5104 -10.0308 19.1844 1.25639 -1.62371
lowerback 16.8344 1.39513 1.32723
upperback -1.44697 2.17295 0.421787
thorax -11.0423 0.959662 -0.856309
lowerneck -9.79997 -3.65393 -6.04785
upperneck -11.5348 -3.94581 6.87627
head -1.75035 -1.82623 3.23659
rclavicle 2.37548e-014 -1.98785e-016
rhumerus -48.7669 10.3846 -89.1072
rradius 30.4691
rwrist 27.6763
rhand -9.18323 -49.202
rfingers 7.12502
rthumb 16.77 -78.4977
lclavicle 2.37548e-014 -1.98785e-016
lhumerus -52.5025 2.56317 81.2425
lradius 30.1638
lwrist -11.6288
lhand -7.5029 -42.9788
lfingers 7.12502
lthumb 18.3871 -13.8278
rfemur -39.6696 6.58644 27.72
rtibia 54.0485
rfoot -30.0607 -23.7293
rtoes -5.94547
lfemur -44.542 -3.8839 -20.4709
ltibia 59.8669
lfoot -34.0967 9.4336
ltoes -35.1209
52
root 9.42774 14.4569 -10.0049 19.2768 1.21275 -1.69459
lowerback 17.0515 1.4397 1.3507
upperback -1.4706 2.24305 0.438375
thorax -11.1929 0.989335 -0.876657
lowerneck -9.4761 -3.66409 -5.98035
upperneck -11.9942 -3.96689 6.86377
head -1.95927 -1.84438 3.23719
rclavicle 2.38542e-015 -1.98785e-016
rhumerus -48.031 9.42179 -88.398
rradius 30.2227
rwrist 28.5467
rhand -8.8555 -48.9067
rfingers 7.12502
rthumb 17.0855 -78.1754
lclavicle 2.38542e-015 -1.98785e-016
lhumerus -52.0849 2.49464 81.6581
lradius 30.1331
lwrist -11.9418
lhand -7.72094 -42.5889
lfingers 7.12502
lthumb 18.1773 -13.4182
rfemur -40.207 6.41579 27.8952
rtibia 55.1944
rfoot -30.5489 -23.8197
rtoes -6.52364
lfemur -45.0661 -3.64871 -20.4654
ltibia 61.0414
lfoot -34.6155 8.68429
ltoes -33.0127
53
root 9.42392 14.3938 -9.98845 19.429 1.3066 -1.80267
lowerback 17.4251 1.43837 1.43186
upperback -1.60978 2.27233 0.476017
thorax -11.5645 0.993145 -0.903097
lowerneck -9.15177 -3.6528 -5.88478
upperneck -12.3711 -3.9674 6.79742
head -2.14454 -1.85244 3.21341
rclavicle 5.36719e-015 9.93923e-016
rhumerus -47.3693 8.46919 -87.711
rradius 29.949
rwrist 29.5105
rhand -8.7507 -48.6032
rfingers 7.12502
rthumb 17.1864 -77.8631
lclavicle 5.36719e-015 9.93923e-016
lhumerus -51.704 2.59929 81.8953
lradius 30.0937
lwrist -12.3193
lhand -7.71236 -42.9029
lfingers 7.12502
lthumb 18.1856 -13.733
rfemur -40.93 6.29011 28.1301
rtibia 56.4915
rfoot -30.9765 -23.9735
rtoes -6.76107
lfemur -45.7847 -3.46084 -20.3433
ltibia 62.3183
lfoot -35.37 7.42238
ltoes -29.8397
